<svg xmlns="http://www.w3.org/2000/svg" viewBox="0 0 512 512">
  <!-- fix-1: app-logo Mijn Tuin -->
  <defs>
    <linearGradient id="bg" x1="0" y1="0" x2="1" y2="1">
      <stop offset="0" stop-color="#3B6351"/>
      <stop offset="1" stop-color="#1F372C"/>
    </linearGradient>
    <clipPath id="clip"><rect width="512" height="512" rx="112"/></clipPath>
  </defs>
  <g clip-path="url(#clip)">
    <rect width="512" height="512" fill="url(#bg)"/>
    <g stroke="#FAF7F0" stroke-opacity="0.09" stroke-width="3">
      <path d="M0 128H512M0 256H512M0 384H512M128 0V512M256 0V512M384 0V512"/>
    </g>
    <ellipse cx="256" cy="436" rx="74" ry="15" fill="#C99A2E"/>
    <path d="M256 436C256 436 132 322 132 222A124 124 0 1 1 380 222C380 322 256 436 256 436Z" fill="#FAF7F0"/>
    <g transform="translate(166 128) scale(7.5)" stroke-linejoin="round" stroke-linecap="round">
      <path d="M12 23V12" fill="none" stroke="#2C4A3B" stroke-width="1.5"/>
      <path d="M12 12C12 7 9 4 4 3c0 5 2 9 8 9z" fill="#7A9B76" stroke="#2C4A3B" stroke-width="1.1"/>
      <path d="M12 12c0-6 3-9 8-10 0 6-2 10-8 10z" fill="#2C4A3B" stroke="#2C4A3B" stroke-width="1.1"/>
    </g>
  </g>
</svg>
